<mxfile host="app.diagrams.net" agent="Mozilla/5.0 (X11; Linux x86_64) AppleWebKit/537.36 (KHTML, like Gecko) Chrome/132.0.0.0 Safari/537.36" version="26.0.9">
  <diagram name="Pagina-1" id="PfXeGrz0sMWf56tpaUQL">
    <mxGraphModel dx="941" dy="547" grid="1" gridSize="10" guides="1" tooltips="1" connect="1" arrows="1" fold="1" page="1" pageScale="1" pageWidth="827" pageHeight="1169" math="0" shadow="0">
      <root>
        <mxCell id="0" />
        <mxCell id="1" parent="0" />
        <mxCell id="Wv51vqmVHbuyguhlN-ex-14" value="" style="edgeStyle=orthogonalEdgeStyle;rounded=0;orthogonalLoop=1;jettySize=auto;html=1;" parent="1" source="Wv51vqmVHbuyguhlN-ex-2" target="Wv51vqmVHbuyguhlN-ex-13" edge="1">
          <mxGeometry relative="1" as="geometry" />
        </mxCell>
        <mxCell id="Wv51vqmVHbuyguhlN-ex-2" value="start" style="ellipse;whiteSpace=wrap;html=1;" parent="1" vertex="1">
          <mxGeometry x="340" y="40" width="120" height="80" as="geometry" />
        </mxCell>
        <mxCell id="Wv51vqmVHbuyguhlN-ex-6" value="" style="edgeStyle=orthogonalEdgeStyle;rounded=0;orthogonalLoop=1;jettySize=auto;html=1;" parent="1" source="Wv51vqmVHbuyguhlN-ex-3" target="Wv51vqmVHbuyguhlN-ex-5" edge="1">
          <mxGeometry relative="1" as="geometry" />
        </mxCell>
        <mxCell id="Wv51vqmVHbuyguhlN-ex-3" value="read n" style="shape=parallelogram;perimeter=parallelogramPerimeter;whiteSpace=wrap;html=1;fixedSize=1;" parent="1" vertex="1">
          <mxGeometry x="340" y="240" width="120" height="60" as="geometry" />
        </mxCell>
        <mxCell id="Wv51vqmVHbuyguhlN-ex-8" value="" style="edgeStyle=orthogonalEdgeStyle;rounded=0;orthogonalLoop=1;jettySize=auto;html=1;" parent="1" source="Wv51vqmVHbuyguhlN-ex-5" target="Wv51vqmVHbuyguhlN-ex-7" edge="1">
          <mxGeometry relative="1" as="geometry" />
        </mxCell>
        <mxCell id="Wv51vqmVHbuyguhlN-ex-11" value="true" style="edgeLabel;html=1;align=center;verticalAlign=middle;resizable=0;points=[];" parent="Wv51vqmVHbuyguhlN-ex-8" vertex="1" connectable="0">
          <mxGeometry x="-0.575" relative="1" as="geometry">
            <mxPoint as="offset" />
          </mxGeometry>
        </mxCell>
        <mxCell id="Wv51vqmVHbuyguhlN-ex-17" value="false" style="edgeStyle=orthogonalEdgeStyle;rounded=0;orthogonalLoop=1;jettySize=auto;html=1;entryX=0.5;entryY=0;entryDx=0;entryDy=0;" parent="1" source="Wv51vqmVHbuyguhlN-ex-5" target="Wv51vqmVHbuyguhlN-ex-20" edge="1">
          <mxGeometry relative="1" as="geometry">
            <mxPoint x="615" y="390" as="targetPoint" />
          </mxGeometry>
        </mxCell>
        <mxCell id="Wv51vqmVHbuyguhlN-ex-5" value="n &amp;lt; 0" style="rhombus;whiteSpace=wrap;html=1;" parent="1" vertex="1">
          <mxGeometry x="350" y="350" width="100" height="80" as="geometry" />
        </mxCell>
        <mxCell id="Wv51vqmVHbuyguhlN-ex-10" value="" style="edgeStyle=orthogonalEdgeStyle;rounded=0;orthogonalLoop=1;jettySize=auto;html=1;" parent="1" source="Wv51vqmVHbuyguhlN-ex-7" target="Wv51vqmVHbuyguhlN-ex-9" edge="1">
          <mxGeometry relative="1" as="geometry">
            <Array as="points">
              <mxPoint x="210" y="770" />
            </Array>
          </mxGeometry>
        </mxCell>
        <mxCell id="Wv51vqmVHbuyguhlN-ex-7" value="write &quot;Errore: numero negativo&quot;" style="whiteSpace=wrap;html=1;" parent="1" vertex="1">
          <mxGeometry x="150" y="500" width="120" height="60" as="geometry" />
        </mxCell>
        <mxCell id="Wv51vqmVHbuyguhlN-ex-9" value="end" style="ellipse;whiteSpace=wrap;html=1;" parent="1" vertex="1">
          <mxGeometry x="360" y="730" width="80" height="80" as="geometry" />
        </mxCell>
        <mxCell id="Wv51vqmVHbuyguhlN-ex-15" style="edgeStyle=orthogonalEdgeStyle;rounded=0;orthogonalLoop=1;jettySize=auto;html=1;" parent="1" source="Wv51vqmVHbuyguhlN-ex-13" target="Wv51vqmVHbuyguhlN-ex-3" edge="1">
          <mxGeometry relative="1" as="geometry" />
        </mxCell>
        <mxCell id="Wv51vqmVHbuyguhlN-ex-13" value="risultato = 0&lt;br&gt;i = 0" style="whiteSpace=wrap;html=1;" parent="1" vertex="1">
          <mxGeometry x="340" y="150" width="120" height="60" as="geometry" />
        </mxCell>
        <mxCell id="Wv51vqmVHbuyguhlN-ex-23" value="" style="edgeStyle=orthogonalEdgeStyle;rounded=0;orthogonalLoop=1;jettySize=auto;html=1;entryX=0.5;entryY=0;entryDx=0;entryDy=0;" parent="1" source="Wv51vqmVHbuyguhlN-ex-20" target="Wv51vqmVHbuyguhlN-ex-24" edge="1">
          <mxGeometry relative="1" as="geometry">
            <mxPoint x="609.9999999999998" y="460" as="targetPoint" />
          </mxGeometry>
        </mxCell>
        <mxCell id="Wv51vqmVHbuyguhlN-ex-26" value="false" style="edgeLabel;html=1;align=center;verticalAlign=middle;resizable=0;points=[];" parent="Wv51vqmVHbuyguhlN-ex-23" vertex="1" connectable="0">
          <mxGeometry x="-0.1095" y="-2" relative="1" as="geometry">
            <mxPoint as="offset" />
          </mxGeometry>
        </mxCell>
        <mxCell id="Wv51vqmVHbuyguhlN-ex-36" value="true" style="edgeStyle=orthogonalEdgeStyle;rounded=0;orthogonalLoop=1;jettySize=auto;html=1;" parent="1" source="Wv51vqmVHbuyguhlN-ex-20" target="Wv51vqmVHbuyguhlN-ex-35" edge="1">
          <mxGeometry relative="1" as="geometry" />
        </mxCell>
        <mxCell id="Wv51vqmVHbuyguhlN-ex-20" value="i &amp;lt; n" style="rhombus;whiteSpace=wrap;html=1;" parent="1" vertex="1">
          <mxGeometry x="660" y="420" width="80" height="80" as="geometry" />
        </mxCell>
        <mxCell id="Wv51vqmVHbuyguhlN-ex-33" value="" style="edgeStyle=orthogonalEdgeStyle;rounded=0;orthogonalLoop=1;jettySize=auto;html=1;" parent="1" source="Wv51vqmVHbuyguhlN-ex-24" edge="1">
          <mxGeometry relative="1" as="geometry">
            <Array as="points">
              <mxPoint x="550" y="710" />
            </Array>
            <mxPoint x="700" y="680" as="targetPoint" />
          </mxGeometry>
        </mxCell>
        <mxCell id="Wv51vqmVHbuyguhlN-ex-24" value="risultato += i^2" style="whiteSpace=wrap;html=1;" parent="1" vertex="1">
          <mxGeometry x="490" y="500" width="120" height="60" as="geometry" />
        </mxCell>
        <mxCell id="Wv51vqmVHbuyguhlN-ex-34" style="edgeStyle=orthogonalEdgeStyle;rounded=0;orthogonalLoop=1;jettySize=auto;html=1;entryX=0.5;entryY=1;entryDx=0;entryDy=0;" parent="1" target="Wv51vqmVHbuyguhlN-ex-20" edge="1">
          <mxGeometry relative="1" as="geometry">
            <Array as="points">
              <mxPoint x="700" y="640" />
              <mxPoint x="700" y="640" />
            </Array>
            <mxPoint x="700.0344827586207" y="680" as="sourcePoint" />
          </mxGeometry>
        </mxCell>
        <mxCell id="Wv51vqmVHbuyguhlN-ex-37" style="edgeStyle=orthogonalEdgeStyle;rounded=0;orthogonalLoop=1;jettySize=auto;html=1;entryX=1;entryY=0.5;entryDx=0;entryDy=0;exitX=0.5;exitY=1;exitDx=0;exitDy=0;" parent="1" source="Wv51vqmVHbuyguhlN-ex-35" target="Wv51vqmVHbuyguhlN-ex-9" edge="1">
          <mxGeometry relative="1" as="geometry">
            <Array as="points">
              <mxPoint x="900" y="770" />
            </Array>
          </mxGeometry>
        </mxCell>
        <mxCell id="Wv51vqmVHbuyguhlN-ex-35" value="write risultato" style="whiteSpace=wrap;html=1;" parent="1" vertex="1">
          <mxGeometry x="840" y="430" width="120" height="60" as="geometry" />
        </mxCell>
        <mxCell id="wziK3H6KeB0GZW4L3UvO-1" value="i = i + 1" style="rounded=0;whiteSpace=wrap;html=1;" vertex="1" parent="1">
          <mxGeometry x="490" y="600" width="120" height="60" as="geometry" />
        </mxCell>
      </root>
    </mxGraphModel>
  </diagram>
</mxfile>
